PathFileType	4	(X/Y/Z)	RBDS010static.trc
DataRate	CameraRate	NumFrames	NumMarkers	Units	OrigDataRate	OrigDataStartFrame	OrigNumFrames
150.000000	150.000000	4	48	mm	150.000000	18	150
Frame#	Time	L.Ankle			L.Ankle.Medial			L.ASIS			L.GTR			L.Heel.Bottom			L.Heel.Lateral			L.Heel.Top			L.HF			L.Iliac.Crest			L.Knee			L.Knee.Medial			L.MT1			L.MT2			L.MT5			L.PSIS			L.Shank.Bottom.Lateral			L.Shank.Bottom.Medial			L.Shank.Top.Lateral			L.Shank.Top.Medial			L.Thigh.Bottom.Lateral			L.Thigh.Bottom.Medial			L.Thigh.Top.Lateral			L.Thigh.Top.Medial			L.TT			R.Ankle			R.Ankle.Medial			R.ASIS			R.GTR			R.Heel.Bottom			R.Heel.Lateral			R.Heel.Top			R.HF			R.Iliac.Crest			R.Knee			R.Knee.Medial			R.MT1			R.MT2			R.MT5			R.PSIS			R.Shank.Bottom.Lateral			R.Shank.Bottom.Medial			R.Shank.Top.Lateral			R.Shank.Top.Medial			R.Thigh.Bottom.Lateral			R.Thigh.Bottom.Medial			R.Thigh.Top.Lateral			R.Thigh.Top.Medial			R.TT			
		X1	Y1	Z1	X2	Y2	Z2	X3	Y3	Z3	X4	Y4	Z4	X5	Y5	Z5	X6	Y6	Z6	X7	Y7	Z7	X8	Y8	Z8	X9	Y9	Z9	X10	Y10	Z10	X11	Y11	Z11	X12	Y12	Z12	X13	Y13	Z13	X14	Y14	Z14	X15	Y15	Z15	X16	Y16	Z16	X17	Y17	Z17	X18	Y18	Z18	X19	Y19	Z19	X20	Y20	Z20	X21	Y21	Z21	X22	Y22	Z22	X23	Y23	Z23	X24	Y24	Z24	X25	Y25	Z25	X26	Y26	Z26	X27	Y27	Z27	X28	Y28	Z28	X29	Y29	Z29	X30	Y30	Z30	X31	Y31	Z31	X32	Y32	Z32	X33	Y33	Z33	X34	Y34	Z34	X35	Y35	Z35	X36	Y36	Z36	X37	Y37	Z37	X38	Y38	Z38	X39	Y39	Z39	X40	Y40	Z40	X41	Y41	Z41	X42	Y42	Z42	X43	Y43	Z43	X44	Y44	Z44	X45	Y45	Z45	X46	Y46	Z46	X47	Y47	Z47	X48	Y48	Z48	

19	0.12	710.5281372070313	102.1452026367188	1038.587768554688	728.4208374023438	118.3584213256836	1118.388671875	815.4321899414063	980.9909057617188	1090.576293945313	707.3221435546875	892.3340454101563	1043.207397460938	637.5769653320313	39.73073196411133	1083.020141601563	666.6126708984375	56.43985748291016	1038.44580078125	647.4204711914063	90.35868835449219	1084.278442382813	696.24560546875	449.0060729980469	1028.977294921875	766.42333984375	1065.637939453125	1060.710205078125	692.9246826171875	512.4249877929688	1033.134643554688	716.9468994140625	495.6690979003906	1157.268676757813	852.0701293945313	56.02598571777344	1125.220947265625	864.4594116210938	69.26406860351563	1079.665161132813	829.0855102539063	50.93017196655273	1011.203857421875	648.0069580078125	1028.97265625	1165.625854492188	684.3203735351563	171.5334777832031	1034.289428710938	656.1398315429688	170.9123840332031	1080.411254882813	670.3196411132813	249.8897857666016	1024.960083007813	642.189697265625	250.3346099853516	1071.041748046875	695.0635375976563	598.149169921875	1025.98779296875	646.0187377929688	589.6409301757813	1078.986083984375	676.8297119140625	706.7151489257813	1029.833251953125	632.326904296875	699.5234375	1081.400146484375	756.4524536132813	430.6861877441406	1065.729614257813	706.5221557617188	115.897575378418	1402.670288085938	724.7398681640625	120.1686782836914	1319.96240234375	819.3633422851563	977.2910766601563	1321.6982421875	717.8517456054688	886.7106323242188	1376.824096679688	632.596435546875	40.6016845703125	1369.103759765625	660.9271240234375	61.61151885986328	1412.271484375	641.8494262695313	89.20347595214844	1367.414794921875	720.6008911132813	445.6011047363281	1394.3115234375	752.0925903320313	1057.887329101563	1359.915161132813	720.8314208984375	510.3821411132813	1389.577514648438	735.6221313476563	490.9157104492188	1266.600830078125	842.5005493164063	57.95522308349609	1323.54296875	859.593017578125	73.05898284912109	1374.1298828125	824.2833862304688	50.8782844543457	1438.1611328125	650.3060302734375	1028.528076171875	1262.347778320313	697.1143798828125	188.2942810058594	1408.267211914063	658.217529296875	188.3609313964844	1375.0029296875	691.8916015625	272.9811706542969	1411.89013671875	651.7862548828125	268.8330078125	1376.296630859375	717.2364501953125	611.3724975585938	1395.9697265625	663.3908081054688	603.4714965820313	1345.83203125	700.8038330078125	719.8775634765625	1392.101318359375	650.3799438476563	713.6203002929688	1345.339965820313	780.4542236328125	436.6733093261719	1357.651977539063	
20	0.1266666666666667	710.5280151367188	102.1504287719727	1038.597412109375	728.420654296875	118.3456268310547	1118.387939453125	815.44091796875	980.9995727539063	1090.55615234375	707.3389892578125	892.3298950195313	1043.203247070313	637.5778198242188	39.73937606811523	1083.0234375	666.6099243164063	56.44852828979492	1038.445922851563	647.4182739257813	90.36932373046875	1084.28173828125	696.2244262695313	449.0108337402344	1028.977783203125	766.4271850585938	1065.649047851563	1060.698608398438	692.9234008789063	512.4228515625	1033.1240234375	716.9487915039063	495.6764526367188	1157.260375976563	852.0750122070313	56.0445556640625	1125.224487304688	864.462890625	69.27070617675781	1079.6796875	829.0895385742188	50.94568634033203	1011.21337890625	648.006591796875	1028.97412109375	1165.621948242188	684.3096923828125	171.5433959960938	1034.288330078125	656.1372680664063	170.9154357910156	1080.4169921875	670.316162109375	249.8991851806641	1024.95947265625	642.19482421875	250.3359222412109	1071.04052734375	695.05712890625	598.1616821289063	1025.990234375	646.0169677734375	589.6563110351563	1078.986450195313	676.82861328125	706.7210693359375	1029.838745117188	632.3329467773438	699.5303344726563	1081.398681640625	756.447265625	430.6871337890625	1065.737548828125	706.5186157226563	115.903938293457	1402.669189453125	724.7374267578125	120.1714401245117	1319.966186523438	819.3792724609375	977.30078125	1321.696533203125	717.8646240234375	886.7135009765625	1376.818969726563	632.5984497070313	40.61419296264648	1369.114501953125	660.9338989257813	61.61556243896484	1412.271606445313	641.8409423828125	89.21846008300781	1367.424560546875	720.6112060546875	445.5963745117188	1394.307739257813	752.0935668945313	1057.88037109375	1359.904296875	720.8397827148438	510.3832092285156	1389.57470703125	735.630615234375	490.9227600097656	1266.6015625	842.4901733398438	57.96445083618164	1323.540893554688	859.5910034179688	73.06512451171875	1374.12841796875	824.2853393554688	50.88430023193359	1438.162475585938	650.3065795898438	1028.529541015625	1262.3408203125	697.1209106445313	188.3018035888672	1408.266479492188	658.2213134765625	188.3710174560547	1375.008666992188	691.8925170898438	272.9838256835938	1411.89306640625	651.7921752929688	268.839599609375	1376.30126953125	717.2517700195313	611.366455078125	1395.968872070313	663.3969116210938	603.4732666015625	1345.832153320313	700.8182983398438	719.8760986328125	1392.095703125	650.3930053710938	713.6173095703125	1345.323364257813	780.45947265625	436.6748962402344	1357.649536132813	
21	0.1333333333333333	710.5355224609375	102.1518325805664	1038.607666015625	728.4181518554688	118.3618316650391	1118.394409179688	815.4503784179688	981.0111694335938	1090.561889648438	707.34375	892.3392333984375	1043.198608398438	637.5835571289063	39.73534393310547	1083.028930664063	666.6067504882813	56.45675659179688	1038.452270507813	647.4244995117188	90.36186218261719	1084.279296875	696.2378540039063	449.0194396972656	1028.9833984375	766.4323120117188	1065.645874023438	1060.692504882813	692.9234619140625	512.4256591796875	1033.127807617188	716.9552001953125	495.6724548339844	1157.266357421875	852.0776977539063	56.03706741333008	1125.231079101563	864.4671630859375	69.26925659179688	1079.6943359375	829.0831909179688	50.94068908691406	1011.215637207031	648.0090942382813	1028.973510742188	1165.610717773438	684.3203735351563	171.5488433837891	1034.301025390625	656.1337890625	170.9098358154297	1080.417724609375	670.3179321289063	249.9014434814453	1024.97021484375	642.189697265625	250.3417053222656	1071.044067382813	695.0646362304688	598.1544799804688	1025.990966796875	646.0211181640625	589.6514282226563	1078.979736328125	676.837158203125	706.720947265625	1029.837646484375	632.334716796875	699.5316772460938	1081.390625	756.45263671875	430.693359375	1065.748413085938	706.5144653320313	115.9021453857422	1402.668334960938	724.7433471679688	120.1788558959961	1319.96533203125	819.3934936523438	977.3060302734375	1321.685180664063	717.8789672851563	886.7085571289063	1376.805419921875	632.5966796875	40.61548233032227	1369.121337890625	660.9278564453125	61.62063217163086	1412.278198242188	641.8475341796875	89.22541046142578	1367.43115234375	720.6144409179688	445.6080322265625	1394.31396484375	752.0953369140625	1057.891845703125	1359.884033203125	720.8582153320313	510.3858947753906	1389.570678710938	735.6459350585938	490.9185180664063	1266.605834960938	842.4933471679688	57.96050643920898	1323.540161132813	859.58349609375	73.07112121582031	1374.144409179688	824.290283203125	50.8944091796875	1438.175659179688	650.3112182617188	1028.523193359375	1262.332885742188	697.1223754882813	188.3007202148438	1408.274047851563	658.2251586914063	188.3718109130859	1375.007690429688	691.8988647460938	272.9833984375	1411.890747070313	651.8076171875	268.8349304199219	1376.306884765625	717.2664184570313	611.3743286132813	1395.964111328125	663.4150390625	603.4708251953125	1345.82763671875	700.8294067382813	719.880126953125	1392.091918945313	650.4007568359375	713.6104736328125	1345.332641601563	780.4738159179688	436.6844177246094	1357.65771484375	
22	0.14	710.5388793945313	102.1527252197266	1038.607177734375	728.4197387695313	118.3477630615234	1118.390014648438	815.4591674804688	981.0106201171875	1090.546020507813	707.3533935546875	892.335205078125	1043.192749023438	637.5530395507813	39.75203323364258	1083.027587890625	666.6149291992188	56.45857238769531	1038.452392578125	647.4287719726563	90.36557006835938	1084.283325195313	696.2300415039063	449.011474609375	1028.981689453125	766.4356689453125	1065.651977539063	1060.691650390625	692.9251098632813	512.4268188476563	1033.129028320313	716.9567260742188	495.6844177246094	1157.259155273438	852.0768432617188	56.04401779174805	1125.236450195313	864.4661865234375	69.26771545410156	1079.688842773438	829.089599609375	50.93768310546875	1011.22802734375	648.0086059570313	1028.971313476563	1165.605224609375	684.3111572265625	171.5489807128906	1034.313354492188	656.1432495117188	170.9086761474609	1080.423706054688	670.3159790039063	249.89794921875	1024.976684570313	642.192626953125	250.3354187011719	1071.045654296875	695.0570678710938	598.1655883789063	1025.984008789063	646.0166015625	589.6533203125	1078.98046875	676.8402709960938	706.7191772460938	1029.834716796875	632.331298828125	699.530517578125	1081.385620117188	756.4515380859375	430.700439453125	1065.752807617188	706.5226440429688	115.9059143066406	1402.674072265625	724.7597045898438	120.1772766113281	1319.977416992188	819.3865966796875	977.3138427734375	1321.680908203125	717.8765258789063	886.71337890625	1376.798706054688	632.603759765625	40.621337890625	1369.128540039063	660.9308471679688	61.61289596557617	1412.270263671875	641.8506469726563	89.22463226318359	1367.437866210938	720.6205444335938	445.6065368652344	1394.303344726563	752.102783203125	1057.890014648438	1359.869750976563	720.8672485351563	510.3855590820313	1389.57373046875	735.6641235351563	490.9208068847656	1266.602416992188	842.4912109375	57.95889282226563	1323.535888671875	859.5880126953125	73.06259155273438	1374.139404296875	824.2841186523438	50.89468383789063	1438.180053710938	650.314208984375	1028.519653320313	1262.327270507813	697.1201782226563	188.3029632568359	1408.269775390625	658.232177734375	188.3721618652344	1375.00439453125	691.9061889648438	272.9881896972656	1411.895263671875	651.8037109375	268.8330383300781	1376.295166015625	717.2726440429688	611.3667602539063	1395.952758789063	663.419189453125	603.4756469726563	1345.824462890625	700.8362426757813	719.876708984375	1392.084838867188	650.4033203125	713.6152954101563	1345.321411132813	780.4720458984375	436.6842651367188	1357.661987304688	
